<svg width="425" height="287" xmlns="http://www.w3.org/2000/svg" xmlns:xlink="http://www.w3.org/1999/xlink" overflow="hidden"><defs><clipPath id="clip0"><rect x="2102" y="946" width="425" height="287"/></clipPath></defs><g clip-path="url(#clip0)" transform="translate(-2102 -946)"><path d="M11.0238 0.0185517 0.023842 6.42698 0.023842 9.01849 11.0238 2.62287Z" stroke="#000000" stroke-width="1.43924" stroke-linecap="round" stroke-linejoin="round" stroke-miterlimit="10" fill="#666666" fill-rule="evenodd" transform="matrix(1 0 0 -1 2105.5 1141.5)"/><path d="M43.0283 18.0198 11.6103 0.0198972 0.0279733 6.75688 5.30237 9.78019" stroke="#231F20" stroke-width="1.43924" stroke-linecap="round" stroke-linejoin="round" stroke-miterlimit="10" fill="#A6A6A6" fill-rule="evenodd" transform="matrix(1 0 0 -1 2105.5 1138.5)"/><path d="M0.0260683 36.9592 2.77431 35.3479 5.42292 36.8994 39.9263 16.7124 39.9263 14.8662 63.1281 0.0239246 70.0262 4.08458 6.9738 41.0242Z" stroke="#231F20" stroke-width="1.43924" stroke-linejoin="round" stroke-miterlimit="10" fill="#666666" fill-rule="evenodd" transform="matrix(1 0 0 -1 2116.5 1181.5)"/><path d="M7.02613 3.91826 0.0259041 0.0198155 0.0259041 8.01972Z" stroke="#231F20" stroke-width="1.43924" stroke-linejoin="round" stroke-miterlimit="10" fill="#A6A6A6" fill-rule="evenodd" transform="matrix(1 0 0 -1 2116.5 1144.5)"/><path d="M0.0339222 1.99174 3.02917 4.0282 3.02917 2.05217 0.0286724 0.027597Z" stroke="#231F20" stroke-width="1.43924" stroke-linejoin="round" stroke-miterlimit="10" fill="#A6A6A6" fill-rule="evenodd" transform="matrix(1 0 0 -1 2118.5 1148.5)"/><path d="M4.01266 0.0223881 0.0268911 2.41946 0.0268911 4.02252 4.02666 1.64012 4.01266 0.0223881" stroke="#231F20" stroke-width="1.43924" stroke-linejoin="round" stroke-miterlimit="10" fill="#666666" fill-rule="evenodd" transform="matrix(1 0 0 -1 2121.5 1148.5)"/><path d="M0.0190815 1.29768 2.01942 3.02308 2.01942 1.74314 0.0190815 0.0225753Z" stroke="#231F20" stroke-width="1.43924" stroke-linejoin="round" stroke-miterlimit="10" fill="#A6A6A6" fill-rule="evenodd" transform="matrix(1 0 0 -1 2119.5 1141.5)"/><path d="M25.0359 4.96577 8.9203 14.0253 0.0358377 9.0169 16.0399 0.0248929Z" stroke="#231F20" stroke-width="1.43924" stroke-linecap="round" stroke-linejoin="round" stroke-miterlimit="10" fill="#A6A6A6" fill-rule="evenodd" transform="matrix(1 0 0 -1 2188.5 1195.5)"/><path d="M0.0353723 0.022964 5.03518 2.5124 0.0353723 5.02313Z" stroke="#231F20" stroke-width="1.43924" stroke-linejoin="round" stroke-miterlimit="10" fill="#666666" fill-rule="evenodd" transform="matrix(1 0 0 -1 2188.5 1186.5)"/><path d="M4.72162 4.02526 0.170977 1.2666C0.093322 1.21203 0.024182 1.09786 0.0326968 0.938462 0.024182 0.788035 0.093322 0.609964 0.170977 0.455229 0.257487 0.300135 0.378738 0.168018 0.499988 0.0904715 0.620898 0.0172327 0.742148 0.00359014 0.828659 0.0585192L6.03221 3.22287Z" stroke="#231F20" stroke-width="1.43924" stroke-linecap="round" stroke-linejoin="round" stroke-miterlimit="10" fill="#666666" fill-rule="evenodd" transform="matrix(1 0 0 -1 2192.5 1185.5)"/><path d="M4.7218 4.02564 0.162139 1.26549C0.0797071 1.21089 0.0323597 1.106 0.0323597 0.946152 0.0323597 0.786664 0.0797071 0.608856 0.162139 0.453679 0.257175 0.307481 0.365495 0.175293 0.490846 0.0930347 0.629141 0.0111354 0.74189 0.0111354 0.819553 0.052085L6.03254 3.22281Z" stroke="#231F20" stroke-width="1.43924" stroke-linecap="round" stroke-linejoin="round" stroke-miterlimit="10" fill="#666666" fill-rule="evenodd" transform="matrix(1 0 0 -1 2195.5 1187.5)"/><path d="M4.70885 4.02521 0.166567 1.25788C0.0800478 1.20341 0.0327004 1.09876 0.0327004 0.943947 0.0327004 0.784831 0.0800478 0.611738 0.166567 0.456922 0.249 0.306765 0.365835 0.174885 0.499702 0.0974767 0.625395 0.0111095 0.74189 0.0111095 0.824322 0.0519637L6.03288 3.22856Z" stroke="#231F20" stroke-width="1.43924" stroke-linecap="round" stroke-linejoin="round" stroke-miterlimit="10" fill="#666666" fill-rule="evenodd" transform="matrix(1 0 0 -1 2198.5 1189.5)"/><path d="M4.72242 4.02558 0.171347 1.27088C0.0977664 1.20742 0.033043 1.09342 0.033043 0.947871 0.033043 0.779376 0.0977664 0.610882 0.171347 0.460671 0.257872 0.296837 0.379143 0.164551 0.513018 0.0964362 0.629861 0.0143399 0.742275 0.00537748 0.837657 0.0598693L6.03324 3.21968Z" stroke="#231F20" stroke-width="1.43924" stroke-linecap="round" stroke-linejoin="round" stroke-miterlimit="10" fill="#666666" fill-rule="evenodd" transform="matrix(1 0 0 -1 2201.5 1190.5)"/><path d="M10.0356 6.16702 0.0352739 0.0272576 0.0352739 5.7487 5.37018 9.02793Z" stroke="#231F20" stroke-width="1.43924" stroke-linejoin="round" stroke-miterlimit="10" fill="#666666" fill-rule="evenodd" transform="matrix(1 0 0 -1 2205.5 1198.5)"/><path d="M90.2802 13.3674 88.6143 11.174 88.004 11.522 88.004 9.90814 91.5007 7.87255 91.5007 2.38685 75.6887 11.6191 75.6887 17.1048 80.8738 14.0863 80.8738 15.6907 77.5469 17.6335 76.0143 21.6956 0.0336009 66.0219 0.0426334 59.1173 2.30473 57.8003 2.30473 52.8619 6.06731 50.6686 6.07201 52.1755 3.29144 53.7985 3.29144 57.2208 3.69032 56.9842 3.69032 59.1823 6.31986 57.6473 6.31986 58.8018 3.69032 60.3463 3.69032 61.7652 75.0142 20.1423 75.0142 19.1127 72.238 20.7313 72.238 19.1127 75.0142 17.4897 75.0142 12.0087 72.5411 13.4554 72.5411 11.8882 92.8678 0.0219077 92.8678 5.5401 95.0338 4.2742 95.0338 10.5851Z" stroke="#231F20" stroke-width="1.43924" stroke-linejoin="round" stroke-miterlimit="10" fill="#808080" fill-rule="evenodd" transform="matrix(1 0 0 -1 2112.5 1198.5)"/><path d="M0.0351023 6.02501 1.65363 1.96638 5.16653 0.0251726 8.035 1.60484 0.0351023 6.02501 8.035 1.60484" stroke="#231F20" stroke-width="1.43924" stroke-linejoin="round" stroke-miterlimit="10" fill="#A6A6A6" fill-rule="evenodd" transform="matrix(1 0 0 -1 2188.5 1182.5)"/><path d="M2.67895 3.02417 0.0330822 1.53478 0.0330822 0.0237284 4.03321 2.26005Z" stroke="#231F20" stroke-width="1.43924" stroke-linejoin="round" stroke-miterlimit="10" fill="#808080" fill-rule="evenodd" transform="matrix(1 0 0 -1 2193.5 1184.5)"/><path d="M15.5635 3.00751 15.5635 6.07383 0.0324027 15.0245 0.0324027 11.709 1.0682 9.77703 18.0232 0.0239642 18.0326 1.57801Z" stroke="#231F20" stroke-width="1.43924" stroke-linejoin="round" stroke-miterlimit="10" fill="#808080" fill-rule="evenodd" transform="matrix(1 0 0 -1 2165.5 1183.5)"/><path d="M3.32422 19.5268 3.32422 21.476 2.50113 23.0225 35.2864 4.40438 35.2864 1.87655 36.0269 0.737089 34.992 0.0224332 0.0267966 19.8751 0.0267966 21.4037Z" stroke="#231F20" stroke-width="1.43924" stroke-linejoin="round" stroke-miterlimit="10" fill="#808080" fill-rule="evenodd" transform="matrix(1 0 0 -1 2122.5 1168.5)"/><path d="M1.03023 1.38375 0.0301927 2.02746 0.0301927 0.676123 1.03023 0.0269354 1.03023 1.38375" fill="#231F20" fill-rule="evenodd" transform="matrix(1 0 0 -1 2126 1149)"/><path d="M1.02985 0.691624 0.0301819 1.01336 0.0301819 0.335202 1.02985 0.0134628 1.02985 0.691624" fill="#231F20" fill-rule="evenodd" transform="matrix(1 0 0 -1 2128 1150)"/><path d="M1.03017 0.691247 0.0301336 1.01389 0.0301336 0.333498 1.03017 0.0138573 1.03017 0.691247" fill="#231F20" fill-rule="evenodd" transform="matrix(1 0 0 -1 2130 1151)"/><path d="M1.03137 1.38067 0.0309289 2.02761 0.0309289 0.680922 1.03137 0.0275491 1.03137 1.38067" fill="#231F20" fill-rule="evenodd" transform="matrix(1 0 0 -1 2132 1153)"/><path d="M1.03196 1.37465 0.0315102 2.02783 0.0315102 0.680951 1.03196 0.0273109 1.03196 1.37465" fill="#231F20" fill-rule="evenodd" transform="matrix(1 0 0 -1 2134 1154)"/><path d="M1.03113 1.38466 0.0359463 2.02791 0.0310996 0.671558 1.03113 0.0278484 1.03113 1.38466" fill="#231F20" fill-rule="evenodd" transform="matrix(1 0 0 -1 2136 1155)"/><path d="M1.03203 0.697367 0.0315843 1.01423 0.0315843 0.339755 1.03203 0.0139657 1.03203 0.697367" fill="#231F20" fill-rule="evenodd" transform="matrix(1 0 0 -1 2138 1156)"/><path d="M1.03149 0.695298 0.0318133 1.01419 0.0318133 0.338747 1.03149 0.0141525 1.03149 0.695298" fill="#231F20" fill-rule="evenodd" transform="matrix(1 0 0 -1 2141 1157)"/><path d="M1.03227 1.37733 0.0322328 2.02891 0.0322328 0.674015 1.03227 0.0283892 1.03227 1.37733" fill="#231F20" fill-rule="evenodd" transform="matrix(1 0 0 -1 2143 1159)"/><path d="M1.03234 1.3871 0.0319073 2.02853 0.0319073 0.681841 1.03234 0.0284674 1.03234 1.3871" fill="#231F20" fill-rule="evenodd" transform="matrix(1 0 0 -1 2145 1160)"/><path d="M1.03292 0.689571 0.0324818 1.01405 0.0324818 0.335886 1.03292 0.0143756 1.03292 0.689571" fill="#231F20" fill-rule="evenodd" transform="matrix(1 0 0 -1 2147 1161)"/><path d="M1.03267 0.685055 0.0326408 1.0145 0.0326408 0.332196 1.03267 0.0144633 1.03267 0.685055" fill="#231F20" fill-rule="evenodd" transform="matrix(1 0 0 -1 2149 1162)"/><path d="M1.03326 1.39151 0.033225 2.02928 0.033225 0.672471 1.03326 0.0287615 1.03326 1.39151" fill="#231F20" fill-rule="evenodd" transform="matrix(1 0 0 -1 2151 1164)"/><path d="M1.03367 1.3801 0.0336352 2.02928 0.0336352 0.666993 1.03367 0.029218 1.03367 1.3801" fill="#231F20" fill-rule="evenodd" transform="matrix(1 0 0 -1 2153 1165)"/><path d="M1.03373 1.39816 0.0332938 2.02954 0.0332938 0.666842 1.03373 0.0294737 1.03373 1.39816" fill="#231F20" fill-rule="evenodd" transform="matrix(1 0 0 -1 2155 1166)"/><path d="M1.03531 1.39284 0.0348658 2.03009 0.0348658 0.667643 1.03531 0.0303892 1.03531 1.39284" fill="#231F20" fill-rule="evenodd" transform="matrix(1 0 0 -1 2166 1172)"/><path d="M1.03536 0.695536 0.0349179 1.01537 0.0349179 0.337923 1.03536 0.0151104 1.03536 0.695536" fill="#231F20" fill-rule="evenodd" transform="matrix(1 0 0 -1 2168 1173)"/><path d="M1.03536 0.692788 0.0349179 1.01537 0.0349179 0.340899 1.03536 0.0151104 1.03536 0.692788" fill="#231F20" fill-rule="evenodd" transform="matrix(1 0 0 -1 2170 1174)"/><path d="M1.03516 1.37363 0.0460885 2.03093 0.0354841 0.675919 1.03516 0.0304141 1.03516 1.37363" fill="#231F20" fill-rule="evenodd" transform="matrix(1 0 0 -1 2172 1176)"/><path d="M1.03594 1.38008 0.0359049 2.0312 0.0359049 0.664399 1.03594 0.0306787 1.03594 1.38008" fill="#231F20" fill-rule="evenodd" transform="matrix(1 0 0 -1 2174 1177)"/><path d="M1.03617 0.696667 0.03573 1.01555 0.03573 0.337149 1.03617 0.0155221 1.03617 0.696667" fill="#231F20" fill-rule="evenodd" transform="matrix(1 0 0 -1 2176 1178)"/><path d="M1.03654 0.689187 0.0365065 1.01564 0.0467612 0.336329 1.03654 0.0156112 1.03654 0.689187" fill="#231F20" fill-rule="evenodd" transform="matrix(1 0 0 -1 2178 1179)"/><path d="M0.0432422 0.579056 2.04331 2.04029 0.812043 0.0396614Z" stroke="#231F20" stroke-width="1.43924" stroke-linejoin="round" stroke-miterlimit="10" fill="#D9D9D9" fill-rule="evenodd" transform="matrix(1 0 0 -1 2200.5 1187.5)"/><path d="M0.0388689 0.0246464 6.03911 3.02248 0.0388689 6.02448Z" stroke="#231F20" stroke-width="1.43924" stroke-linejoin="round" stroke-miterlimit="10" fill="#A6A6A6" fill-rule="evenodd" transform="matrix(1 0 0 -1 2207.5 1193.5)"/><path d="M0.0247253 0.0157522 2.02479 1.01602" stroke="#231F20" stroke-width="1.43924" stroke-miterlimit="8" fill="#D9D9D9" fill-rule="evenodd" transform="matrix(1 0 0 -1 2190.5 1180.5)"/><path d="M0.0272245 23.023 0.0272245 21.208 33.3453 2.76475 33.3453 0.967802 35.0273 0.0225809 35.0273 3.6387Z" stroke="#231F20" stroke-width="1.43924" stroke-linejoin="round" stroke-miterlimit="10" fill="#808080" fill-rule="evenodd" transform="matrix(1 0 0 -1 2123.5 1167.5)"/><path d="M17.032 1.91987 0.0317592 12.0245 0.0317592 8.2145 1.63163 7.26663 1.63163 9.17165 17.032 0.024133Z" stroke="#231F20" stroke-width="1.43924" stroke-linejoin="round" stroke-miterlimit="10" fill="#808080" fill-rule="evenodd" transform="matrix(1 0 0 -1 2162.5 1178.5)"/><path d="M5.03778 2.21901 0.0376172 0.0212725 0.0376172 1.64243 3.17489 3.02133Z" stroke="#231F20" stroke-width="1.43924" stroke-linejoin="round" stroke-miterlimit="10" fill="#808080" fill-rule="evenodd" transform="matrix(1 0 0 -1 2179.5 1178.5)"/><path d="M0.0355342 1.53746 0.987537 2.0233 3.03563 0.986366 3.03563 0.0232327Z" stroke="#231F20" stroke-width="1.43924" stroke-linejoin="round" stroke-miterlimit="10" fill="#808080" fill-rule="evenodd" transform="matrix(1 0 0 -1 2184.5 1179.5)"/><path d="M0.0265896 1.52887 2.02666 3.02664 2.02666 0.0265428Z" stroke="#231F20" stroke-width="1.43924" stroke-linejoin="round" stroke-miterlimit="10" fill="#808080" fill-rule="evenodd" transform="matrix(1 0 0 -1 2185.5 1186.5)"/><path d="M7.03319 3.58848 7.03319 0.26351 6.60547 0.0237056 3.32139 1.82567 2.48914 1.38042 0.0329567 2.73302 4.2507 5.02387Z" stroke="#231F20" stroke-width="1.43924" stroke-linejoin="round" stroke-miterlimit="10" fill="#666666" fill-rule="evenodd" transform="matrix(1 0 0 -1 2180.5 1183.5)"/><path d="M1.02763 0.485038 0.0387136 0.0247542 0.0498976 1.56023 1.03839 2.02482Z" stroke="#231F20" stroke-width="1.43924" stroke-linejoin="round" stroke-miterlimit="10" fill="#666666" fill-rule="evenodd" transform="matrix(1 0 0 -1 2183.5 1183.5)"/><path d="M0.0510299 3.02856 0.0395922 1.28291 2.39753 0.0280573 4.03972 0.895801Z" stroke="#231F20" stroke-width="1.43924" stroke-linejoin="round" stroke-miterlimit="10" fill="#A6A6A6" fill-rule="evenodd" transform="matrix(1 0 0 -1 2183.5 1184.5)"/><path d="M0.0311303 9.50924 2.79404 11.0234 20.0314 1.53712 17.2824 0.0230045Z" stroke="#231F20" stroke-width="1.43924" stroke-linejoin="round" stroke-miterlimit="10" fill="#A6A6A6" fill-rule="evenodd" transform="matrix(1 0 0 -1 2162.5 1176.5)"/><path d="M2.0228 5.02215 0.0224605 3.54604 0.0224605 0.0220059 2.0228 1.50671Z" stroke="#231F20" stroke-width="1.43924" stroke-linejoin="round" stroke-miterlimit="10" fill="#666666" fill-rule="evenodd" transform="matrix(1 0 0 -1 2158.5 1167.5)"/><path d="M0.0281127 1.01892 2.02852 0.0185999" stroke="#231F20" stroke-width="1.43924" stroke-linejoin="round" stroke-miterlimit="10" fill="#666666" fill-rule="evenodd" transform="matrix(1 0 0 -1 2160.5 1167.5)"/><path d="M0.0237212 1.41058 1.30829 2.01568 3.02379 1.22238 3.02379 0.0156172Z" stroke="#231F20" stroke-width="1.43924" stroke-linejoin="round" stroke-miterlimit="10" fill="#808080" fill-rule="evenodd" transform="matrix(1 0 0 -1 2122.5 1148.5)"/><path d="M0.0267055 20.4158 2.75356 22.0234 37.0272 1.6165 34.3595 0.0230133Z" stroke="#231F20" stroke-width="1.43924" stroke-linejoin="round" stroke-miterlimit="10" fill="#A6A6A6" fill-rule="evenodd" transform="matrix(1 0 0 -1 2123.5 1164.5)"/><path d="M2.76848 0.0138021 4.02688 0.498846 0.0267504 2.01387 0.0267504 1.0561Z" stroke="#231F20" stroke-width="1.43924" stroke-linejoin="round" stroke-miterlimit="10" fill="#666666" fill-rule="evenodd" transform="matrix(1 0 0 -1 2116.5 1139.5)"/><path d="M63.0414 0.0264066 0.0410984 37.2518 0.0410984 40.0266 63.0414 2.81972Z" stroke="#000000" stroke-width="1.43924" stroke-linecap="round" stroke-linejoin="round" stroke-miterlimit="10" fill="#666666" fill-rule="evenodd" transform="matrix(1 0 0 -1 2210.5 1232.5)"/><path d="M0.0425938 0.0286744 31.0429 18.2134 31.0429 21.029 0.0425938 2.86744Z" stroke="#000000" stroke-width="1.43924" stroke-linecap="round" stroke-linejoin="round" stroke-miterlimit="10" fill="#666666" fill-rule="evenodd" transform="matrix(1 0 0 -1 2273.5 1232.5)"/><path d="M95.0444 18.2233 63.3226 0.0272975 0.0441767 36.9713 5.35588 40.0275" stroke="#231F20" stroke-width="1.43924" stroke-linecap="round" stroke-linejoin="round" stroke-miterlimit="10" fill="#A6A6A6" fill-rule="evenodd" transform="matrix(1 0 0 -1 2210.5 1229.5)"/><path d="M5.05009 5.10347C5.05009 3.36752 3.93583 1.26727 2.54282 0.404413 1.17402-0.469087 0.049926 0.243139 0.049926 1.97417 0.049926 3.69498 1.17402 5.80014 2.54282 6.65808 3.93583 7.52626 5.05009 6.82427 5.05009 5.10347Z" stroke="#231F20" stroke-width="1.43924" stroke-linecap="round" stroke-linejoin="round" stroke-miterlimit="10" fill="#231F20" fill-rule="evenodd" transform="matrix(1 0 0 -1 2322.5 1205.5)"/><path d="M5.05754 4.36685C5.05754 2.87946 3.94547 1.06604 2.56463 0.342567 1.17926-0.403413 0.0573777 0.19942 0.0573777 1.67344 0.0573777 3.1654 1.17926 4.96546 2.56463 5.70265 3.94547 6.44863 5.05754 5.84544 5.05754 4.36685Z" stroke="#231F20" stroke-width="1.43924" stroke-linecap="round" stroke-linejoin="round" stroke-miterlimit="10" fill="#231F20" fill-rule="evenodd" transform="matrix(1 0 0 -1 2392.5 1164.5)"/><path d="M5.06882 4.35375C5.06882 2.86915 3.94312 1.0679 2.55421 0.323319 1.19395-0.398795 0.0686351 0.194132 0.0686351 1.66539 0.0686351 3.15877 1.19395 4.95124 2.55421 5.69547 3.94312 6.44462 5.06882 5.83379 5.06882 4.35375Z" stroke="#231F20" stroke-width="1.43924" stroke-linecap="round" stroke-linejoin="round" stroke-miterlimit="10" fill="#231F20" fill-rule="evenodd" transform="matrix(1 0 0 -1 2494.5 1105.5)"/><path d="M4.04034 4.36598C4.04034 2.88164 3.13802 1.0807 2.04798 0.340813 0.934664-0.394514 0.0399016 0.202873 0.0399016 1.68722 0.0399016 3.17156 0.934664 4.96793 2.04798 5.71238 3.13802 6.44771 4.04034 5.85032 4.04034 4.36598Z" stroke="#231F20" stroke-width="1.43924" stroke-linecap="round" stroke-linejoin="round" stroke-miterlimit="10" fill="#231F20" fill-rule="evenodd" transform="matrix(1 0 0 -1 2325.5 1206.5)"/><path d="M5.05788 5.08746C5.05788 3.35267 3.94652 1.2532 2.55307 0.393804 1.18301-0.466002 0.0576987 0.23218 0.0576987 1.96164 0.0576987 3.68084 1.18301 5.79097 2.55307 6.65037 3.94652 7.52576 5.05788 6.81732 5.05788 5.08746Z" stroke="#231F20" stroke-width="1.43924" stroke-linecap="round" stroke-linejoin="round" stroke-miterlimit="10" fill="#231F20" fill-rule="evenodd" transform="matrix(1 0 0 -1 2395.5 1166.5)"/><path d="M5.06905 4.35956C5.06905 2.87418 3.93607 1.07654 2.55466 0.335783 1.18718-0.408841 0.0688821 0.193181 0.0688821 1.674 0.0688821 3.15938 1.18718 4.95281 2.55466 5.69778 3.93607 6.44276 5.06905 5.83582 5.06905 4.35956Z" stroke="#231F20" stroke-width="1.43924" stroke-linecap="round" stroke-linejoin="round" stroke-miterlimit="10" fill="#231F20" fill-rule="evenodd" transform="matrix(1 0 0 -1 2497.5 1107.5)"/><path d="M5.05034 4.36927C5.05034 2.89224 3.92502 1.08951 2.55044 0.344314 1.17585-0.396312 0.0501564 0.20167 0.0501564 1.68292 0.0501564 3.16874 1.17585 4.97147 2.55044 5.70331 3.92502 6.45729 5.05034 5.84596 5.05034 4.36927Z" stroke="#231F20" stroke-width="1.43924" stroke-linecap="round" stroke-linejoin="round" stroke-miterlimit="10" fill="#231F20" fill-rule="evenodd" transform="matrix(1 0 0 -1 2327.5 1208.5)"/><path d="M4.04673 4.36894C4.04673 2.88408 3.15532 1.0875 2.04485 0.334182 0.938004-0.397017 0.0465976 0.200439 0.0465976 1.68039 0.0465976 3.16525 0.938004 4.97517 2.04485 5.71059 3.15532 6.44179 4.04673 5.84433 4.04673 4.36894Z" stroke="#231F20" stroke-width="1.43924" stroke-linecap="round" stroke-linejoin="round" stroke-miterlimit="10" fill="#231F20" fill-rule="evenodd" transform="matrix(1 0 0 -1 2398.5 1167.5)"/><path d="M4.05565 4.35244C4.05565 2.8792 3.15533 1.0769 2.05166 0.333617 0.963374-0.409662 0.0552138 0.2001 0.0552138 1.67755 0.0552138 3.15955 0.955832 4.95764 2.05166 5.70092 3.15533 6.43965 4.05565 5.839 4.05565 4.35244Z" stroke="#231F20" stroke-width="1.43924" stroke-linecap="round" stroke-linejoin="round" stroke-miterlimit="10" fill="#231F20" fill-rule="evenodd" transform="matrix(1 0 0 -1 2500.5 1108.5)"/><path d="M5.05043 4.36985C5.05043 2.89789 3.93244 1.09123 2.56017 0.3463 1.16862-0.398632 0.050629 0.203706 0.050629 1.68444 0.050629 3.16552 1.16862 4.9764 2.56017 5.7122 3.93244 6.44835 5.05043 5.85058 5.05043 4.36985Z" stroke="#231F20" stroke-width="1.43924" stroke-linecap="round" stroke-linejoin="round" stroke-miterlimit="10" fill="#231F20" fill-rule="evenodd" transform="matrix(1 0 0 -1 2330.5 1209.5)"/><path d="M5.05873 5.09033C5.05873 3.36 3.94066 1.25039 2.54901 0.3932 1.18609-0.464394 0.0581898 0.231992 0.0581898 1.957 0.0581898 3.69265 1.18609 5.78181 2.54901 6.65986 3.94066 7.51704 5.05873 6.82107 5.05873 5.09033Z" stroke="#231F20" stroke-width="1.43924" stroke-linecap="round" stroke-linejoin="round" stroke-miterlimit="10" fill="#231F20" fill-rule="evenodd" transform="matrix(1 0 0 -1 2400.5 1169.5)"/><path d="M5.07014 4.35342C5.07014 2.87073 3.94604 1.06267 2.55795 0.336928 1.18423-0.406698 0.0695938 0.185468 0.0695938 1.68184 0.0695938 3.15997 1.18423 4.95435 2.55795 5.70254 3.94604 6.4416 5.07014 5.83156 5.07014 4.35342Z" stroke="#231F20" stroke-width="1.43924" stroke-linecap="round" stroke-linejoin="round" stroke-miterlimit="10" fill="#231F20" fill-rule="evenodd" transform="matrix(1 0 0 -1 2502.5 1110.5)"/><path d="M0.0659339 0.024524 0.0659339 3.02462" stroke="#000000" stroke-width="1.43924" stroke-linecap="round" stroke-linejoin="round" stroke-miterlimit="10" fill="none" fill-rule="evenodd" transform="matrix(1 0 0 -1 2414.5 1153.5)"/><path d="M194.073 122.108 191.734 126.026 0.0651301 9.6824 0.0651301 2.17663 3.81011 0.0255862 205.065 115.706 205.065 115.797Z" stroke="#231F20" stroke-width="1.43924" stroke-linecap="round" stroke-linejoin="round" stroke-miterlimit="10" fill="#A6A6A6" fill-rule="evenodd" transform="matrix(1 0 0 -1 2320.5 1207.5)"/><path d="M205.066 116.026 3.8112 0.0260184 0.0658538 2.09123" stroke="#000000" stroke-width="1.43924" stroke-linecap="round" stroke-linejoin="round" stroke-miterlimit="10" fill="none" fill-rule="evenodd" transform="matrix(1 0 0 -1 2320.5 1207.5)"/><path d="M0.0498699 2.79427 201.05 119.017 201.05 116.236 0.0498699 0.0170162Z" stroke="#000000" stroke-width="1.43924" stroke-linecap="round" stroke-linejoin="round" stroke-miterlimit="10" fill="#666666" fill-rule="evenodd" transform="matrix(1 0 0 -1 2324.5 1210.5)"/><path d="M0.0437014 8.69486 17.0443 18.0287 17.0443 0.0284635Z" stroke="#231F20" stroke-width="1.43924" stroke-linecap="round" stroke-linejoin="round" stroke-miterlimit="10" fill="#A6A6A6" fill-rule="evenodd" transform="matrix(1 0 0 -1 2292.5 1223.5)"/><path d="M422.063 169.027C422.022 167.865 421.486 166.688 420.463 166.072 420.463 166.072 176.859 25.0766 176.804 25.0625 176.502 24.8971 176.195 24.7455 175.851 24.6214 173.77 23.8723 171.038 23.831 168.718 24.4147 167.787 24.6308 166.935 24.9753 166.238 25.3936L2.24509 120.313C0.782534 121.131 0.0490888 122.275 0.0628048 123.419L0.0628048 99.4209C0.0490888 98.281 0.782534 97.1415 2.24509 96.3143L166.238 1.39934C166.935 0.981381 167.787 0.650273 168.718 0.429897 171.038-0.153793 173.77-0.117245 175.851 0.631818 176.195 0.755938 176.502 0.912264 176.804 1.07329 176.878 1.09609 207.224 18.6289 207.224 18.6289L207.224 0.779098 406.771 116.306C406.771 116.306 406.771 124.555 406.771 126.241 406.771 127.933 407.784 128.87 408.829 129.546 409.883 130.216 420.422 136.241 420.422 136.241 421.476 136.848 422.022 138.034 422.063 139.22Z" stroke="#231F20" stroke-width="1.43924" stroke-linecap="round" stroke-linejoin="round" stroke-miterlimit="10" fill="#D9D9D9" fill-rule="evenodd" transform="matrix(1 0 0 -1 2102.5 1224.5)"/><path d="M11.0443 1.55906C10.7294 1.31932 10.4097 1.09952 10.0515 0.919591 7.88522-0.166292 5.04062-0.226619 2.6259 0.619531 1.65716 0.932706 0.769583 1.43263 0.0439654 2.03852" stroke="#231F20" stroke-width="1.43924" stroke-linecap="round" stroke-linejoin="round" stroke-miterlimit="10" fill="none" fill-rule="evenodd" transform="matrix(1 0 0 -1 2268.5 1200.5)"/><path d="M177.041 24.976C176.738 24.8111 176.43 24.6596 176.085 24.5362 174.002 23.7892 171.265 23.7481 168.942 24.3299 168.01 24.5453 167.157 24.8887 166.459 25.3056L2.2256 119.923C0.761267 120.739 0.0267492 121.879 0.0404852 123.02L0.0404852 99.0976C0.0267492 97.9617 0.761267 96.8255 2.2256 96.0009L166.459 1.38803C167.157 0.971047 168.01 0.641352 168.942 0.421316 171.265-0.160518 174.002-0.123725 176.085 0.622956 176.43 0.746681 176.738 0.90215 177.041 1.06267" stroke="#231F20" stroke-width="1.43924" stroke-linecap="round" stroke-linejoin="round" stroke-miterlimit="10" fill="#A6A6A6" fill-rule="evenodd" transform="matrix(1 0 0 -1 2102.5 1224.5)"/><path d="M10.87 25.5384C10.5547 25.3688 10.2349 25.2134 9.87719 25.0862 7.71048 24.3184 4.86626 24.2762 2.45154 24.8741 1.4828 25.0955 0.595224 25.449-0.130393 25.8777L-0.130393 1.28408C0.595224 0.855309 1.4828 0.516301 2.45154 0.290048 4.86626-0.308223 7.71048-0.27039 9.87719 0.497385 10.2349 0.624606 10.5547 0.784837 10.87 0.949519L10.87 25.5384" fill="#B2B4B6" fill-rule="evenodd" transform="matrix(1 0 0 -1 2268 1224)"/><path d="M0.0432139 2.04279C0.768831 1.43359 1.65641 0.950981 2.62515 0.629767 5.03987-0.220999 7.88409-0.167727 10.0508 0.924608 10.4085 1.10499 10.7283 1.33285 11.0436 1.56756" stroke="#231F20" stroke-width="1.43924" stroke-linecap="round" stroke-linejoin="round" stroke-miterlimit="10" fill="none" fill-rule="evenodd" transform="matrix(1 0 0 -1 2268.5 1224.5)"/><path d="M9.03927 0.0265709 9.03927 3.50698 0.0393307 9.02689 0.0393307 5.53661Z" stroke="#000000" stroke-width="1.43924" stroke-linecap="round" stroke-linejoin="round" stroke-miterlimit="10" fill="#666666" fill-rule="evenodd" transform="matrix(1 0 0 -1 2243.5 1193.5)"/><path d="M9.02637 0.0186098 9.02637 3.50092 0.0260754 9.01891 0.0260754 5.53622Z" stroke="#000000" stroke-width="1.43924" stroke-linecap="round" stroke-linejoin="round" stroke-miterlimit="10" fill="#666666" fill-rule="evenodd" transform="matrix(1 0 0 -1 2117.5 1120.5)"/><path d="M215.066 124.026 141.382 81.5262 138.951 77.304 120.825 66.8417 118.385 68.2449 0.0653803 0.0256306" stroke="#231F20" stroke-width="1.43924" stroke-miterlimit="8" fill="none" fill-rule="evenodd" transform="matrix(1 0 0 -1 2309.5 1205.5)"/><path d="M20.0591 30.0195 20.0591 19.1755C20.0591 12.6403 15.5761 4.69063 10.0635 1.41851 4.54175-1.84889 0.0587723 0.800883 0.0587723 7.33604L0.0587723 18.1844Z" stroke="#231F20" stroke-width="1.43924" stroke-miterlimit="8" fill="#FFFFFF" fill-rule="evenodd" transform="matrix(1 0 0 -1 2428.5 1131.5)"/><path d="M420.543 147.707 412.915 152.096 263.935 238.181 256.564 242.415C252.645 244.685 248.23 244.377 244.994 242.515L237.495 238.181 2.10823 102.192C-0.70166 100.55-0.582551 97.7241 2.25477 96.1187L159.221 5.4424 166.243 1.39229C166.94 0.970451 167.792 0.640346 168.723 0.42473 171.043-0.16722 173.775-0.130381 175.856 0.621927 176.199 0.745807 176.506 0.90183 176.809 1.06219 176.809 1.06219 177.574 1.50714 178.973 2.31435 179.747 2.75461 180.715 3.30972 181.861 3.98871 182.649 4.41525 183.465 4.89235 184.404 5.4424 220.736 26.4319 376.776 116.567 412.915 137.437 416.491 139.5 418.888 140.895 419.892 141.468 420.107 141.588 420.263 141.684 420.337 141.725 420.364 141.744 420.419 141.762 420.419 141.762 422.496 142.973 422.679 146.459 420.543 147.707Z" stroke="#231F20" stroke-width="1.43924" stroke-linecap="round" stroke-linejoin="round" stroke-miterlimit="10" fill="#D9D9D9" fill-rule="evenodd" transform="matrix(1 0 0 -1 2102.5 1195.5)"/><path d="M2.00844 11.5719C-0.717924 9.8828-0.602356 7.02299 2.15062 5.39012L11.0238 0.015796 11.0238 17.0164Z" stroke="#231F20" stroke-width="1.43924" stroke-linecap="round" stroke-linejoin="round" stroke-miterlimit="10" fill="#D9D9D9" fill-rule="evenodd" transform="matrix(1 0 0 -1 2102.5 1099.5)"/><path d="M19.5246 4.37132C15.5225 6.69072 11.0147 6.36583 7.71002 4.45579L0.0519702 0.000370451 27.0518 0.000370451Z" stroke="#231F20" stroke-width="1.43924" stroke-linecap="round" stroke-linejoin="round" stroke-miterlimit="10" fill="#D9D9D9" fill-rule="evenodd" transform="matrix(1 0 0 -1 2339.5 952.5)"/><path d="M7.57162 10.5072 0.0671186 15.0112 0.0671186 0.0110836C2.42586 1.43274 4.275 2.53998 5.52859 3.29551 6.77792 4.05067 7.44981 4.44488 7.44981 4.44488 8.48713 5.06889 9.02408 6.26554 9.06457 7.46663 9.10505 8.66772 8.61818 9.88285 7.57162 10.5072Z" stroke="#231F20" stroke-width="1.43924" stroke-linecap="round" stroke-linejoin="round" stroke-miterlimit="10" fill="#D9D9D9" fill-rule="evenodd" transform="matrix(1 0 0 -1 2515.5 1053.5)"/><path d="M-0.125687 4.84102 26.8741 4.84102 26.8741-0.158784-0.125687-0.158784Z" stroke="#231F20" stroke-width="1.43924" stroke-linecap="round" stroke-linejoin="round" stroke-miterlimit="10" fill="#A6A6A6" fill-rule="evenodd" transform="matrix(1 0 0 -1 2339.5 957.5)"/><path d="M396.062 140.657C396.062 141.31 395.411 142.211 394.618 142.681L247.855 227.166C247.053 227.636 245.468 228.016 244.341 228.016L227.128 228.016C225.992 228.016 224.425 227.636 223.614 227.166L1.51908 99.3012C0.716963 98.8399 0.0617014 97.9396 0.0617014 97.2815L0.0617014 87.3699C0.0617014 86.7255 0.721653 85.8068 1.51908 85.3499L148.278 0.847015C149.089 0.381049 150.652 0.0154722 151.788 0.0154722L169.009 0.0154722C170.127 0.0154722 171.713 0.376371 172.501 0.847015L394.618 128.725C395.411 129.187 396.062 130.092 396.062 130.75Z" stroke="#231F20" stroke-width="1.43924" stroke-linejoin="round" stroke-miterlimit="10" fill="#A6A6A6" fill-rule="evenodd" transform="matrix(1 0 0 -1 2116.5 1187.5)"/><path d="M209.287 114.705 201.892 118.938C199.474 120.337 199.474 122.592 201.892 123.973 204.323 125.371 208.241 125.371 210.681 123.982L218.062 119.749 209.287 114.705M9.27148 0.0222427 1.89461 4.25518C-0.545806 5.64929-0.545806 7.90442 1.88088 9.28059 4.30757 10.6747 8.23911 10.6747 10.6662 9.28059L18.0474 5.05699 9.27148 0.0222427" stroke="#231F20" stroke-width="1.43924" stroke-linejoin="round" stroke-miterlimit="10" fill="none" fill-rule="evenodd" transform="matrix(1 0 0 -1 2285.5 1183.5)"/><path d="M1.04439 6.39948C2.09749 5.16519 3.72539 2.65933 2.72141 0.0098656 1.98671 2.13974 0.279038 3.6711 0.279038 3.6711 0.124365 3.92176 0.0491191 4.1768 0.0358813 4.45998L0.0358813 8.00977C0.279038 7.23952 0.858714 6.61324 1.04439 6.39948Z" stroke="#231F20" stroke-width="1.43924" stroke-linejoin="round" stroke-miterlimit="10" fill="#808080" fill-rule="evenodd" transform="matrix(1 0 0 -1 2225.5 1039.5)"/><path d="M230.088 44.2235C229.932 44.1053 229.767 43.9872 229.588 43.8826L163.001 5.7387C161.814 5.05229 159.477 4.47903 157.795 4.45647L98.7783 3.51512C97.0962 3.49256 94.7636 4.02429 93.572 4.7021L2.20421 57.0472C1.03065 57.7157 0.059183 59.0574 0.0501612 60.0213L0.0501612 56.5244C0.0501612 55.5695 1.02163 54.2231 2.20421 53.555L93.572 1.20059C94.7636 0.527429 97.0962-0.00895161 98.7783 0.0229161L157.795 0.954958C159.477 0.995777 161.814 1.57334 163.001 2.24184L229.588 40.3764C230.537 40.9311 231.027 41.6451 231.05 42.359L231.05 45.9651C231.05 44.9192 230.615 44.569 230.088 44.2235Z" stroke="#231F20" stroke-width="1.43924" stroke-linejoin="round" stroke-miterlimit="10" fill="#808080" fill-rule="evenodd" transform="matrix(1 0 0 -1 2148.5 1170.5)"/><path d="M100.062 54.0184C100.035 53.0647 99.021 51.7126 97.8284 51.025L38.1885 16.5937C33.7854 14.0587 19.92 11.0426 15.1362 9.89191 12.4348 9.36456 6.90811 8.70907 3.70181 6.8664 0.482138 5.00966-0.5959 2.38301 0.4453 0.0176867 0.981972 1.23265 2.06434 2.3877 3.70181 3.34567 6.90811 5.17931 12.4348 5.84852 15.1362 6.36684 19.92 7.5172 33.7854 10.5427 38.1885 13.064L97.8284 47.4996C99.021 48.1966 100.035 49.535 100.062 50.5023Z" stroke="#231F20" stroke-width="1.43924" stroke-linejoin="round" stroke-miterlimit="10" fill="#808080" fill-rule="evenodd" transform="matrix(1 0 0 -1 2377.5 1121.5)"/><path d="M163.235 2.25343C162.046 1.55934 159.705 0.980334 158.021 0.957174L98.9183 0.00615197C97.2339-0.0170084 94.8978 0.520746 93.7044 1.20542L2.20308 54.1087C1.01914 54.7887 0.0458976 56.14 0.0458976 57.1141L0.0552939 91.1331C0.0552939 92.0888 1.01914 93.4585 2.19875 94.1432L52.5712 123.258C53.7598 123.947 56.0088 124.223 57.5693 123.869 57.5693 123.869 68.8326 120.188 76.3046 124.513 84.4975 129.26 77.3924 135.336 77.3924 135.336 76.7867 136.241 77.2641 137.542 78.4574 138.218L179.712 196.76C180.905 197.449 183.246 198.014 184.926 198.005L225.297 198.005C226.972 198.014 229.322 197.445 230.506 196.76L328.966 139.84C330.145 139.155 331.086 137.795 331.045 136.82L329.379 100.021C329.351 99.0655 328.337 97.7095 327.144 97.0202L267.463 62.5007C263.057 59.9592 249.182 56.935 244.395 55.7813 241.692 55.253 236.161 54.5958 232.953 52.7481 228.974 50.4411 228.253 46.962 230.782 44.2413 231.815 43.1336 231.516 41.7321 229.919 40.8035Z" stroke="#231F20" stroke-width="1.43924" stroke-linejoin="round" stroke-miterlimit="10" fill="#E6E6E6" fill-rule="evenodd" transform="matrix(1 0 0 -1 2148.5 1167.5)"/><path d="M44.4244 25.6332C54.5788 19.7701 54.5788 10.28 44.4244 4.41698 34.2697-1.45076 17.8062-1.45076 7.65577 4.41698-2.49898 10.28-2.49898 19.7701 7.65577 25.6332 17.8062 31.4778 34.2697 31.4778 44.4244 25.6332Z" stroke="#231F20" stroke-width="1.43924" stroke-linejoin="round" stroke-miterlimit="10" fill="#D9D9D9" fill-rule="evenodd" transform="matrix(1 0 0 -1 2212.5 1107.5)"/><path d="M422.063 149.807 422.063 155.025C422.022 153.847 421.476 152.673 420.422 152.062 420.422 152.062 419.739 151.675 418.469 150.935 417.195 150.194 415.316 149.108 412.918 147.714L412.918 142.45C376.779 121.516 220.74 31.1043 184.408 10.0506L184.408 15.3232C179.549 12.5119 176.821 10.9295 176.812 10.9295 175.492 10.2115 174.69 10.0644 175.859 10.4875 173.777 9.73326 171.046 9.69631 168.726 10.2669 167.796 10.5107 166.943 10.8328 166.246 11.2559L159.224 15.3232 159.224 10.0506 11.4034 95.7053 11.4034 100.978 6.83323 103.637 2.25837 106.278C0.832678 107.079 0.0949261 108.192 0.0628028 109.296L0.0628028 102.722C0.0628028 102.699 0.0765183 102.685 0.0765183 102.657L0.0765183 99.5425C0.0628028 98.397 0.796224 97.2511 2.25837 96.4324L166.246 1.40563C166.943 0.986839 167.796 0.64159 168.726 0.425674 171.046-0.158677 173.777-0.117377 175.859 0.632533 176.203 0.756794 176.51 0.908588 176.812 1.07415 176.886 1.10639 420.422 142.22 420.422 142.22 421.476 142.823 422.022 144.019 422.063 145.202Z" stroke="#231F20" stroke-width="1.43924" stroke-linecap="round" stroke-linejoin="round" stroke-miterlimit="10" fill="#D9D9D9" fill-rule="evenodd" transform="matrix(1 0 0 -1 2102.5 1200.5)"/><path d="M4.3748-0.130354C6.85823-0.130354 8.8769 0.994234 8.8769 2.36258 8.8769 3.75013 6.85823 4.86983 4.3748 4.86983 1.88639 4.86983-0.123389 3.75013-0.123389 2.36258-0.123389 0.994234 1.88639-0.130354 4.3748-0.130354" fill="#E7E8E8" fill-rule="evenodd" transform="matrix(1 0 0 -1 2271 1184)"/><path d="M4.53926 0.0256206C7.02294 0.0256206 9.04154 1.15029 9.04154 2.51873 9.04154 3.90639 7.02294 5.02616 4.53926 5.02616 2.05095 5.02616 0.0416022 3.90639 0.0416022 2.51873 0.0416022 1.15029 2.05095 0.0256206 4.53926 0.0256206Z" stroke="#000000" stroke-width="1.43924" stroke-linecap="round" stroke-linejoin="round" stroke-miterlimit="10" fill="none" fill-rule="evenodd" transform="matrix(1 0 0 -1 2271.5 1184.5)"/><path d="M8.8769 2.47899C8.8769 1.04443 6.85823-0.135819 4.3748-0.135819 1.88639-0.135819-0.123389 1.04443-0.123389 2.47899L-0.123389 3.86395C-0.123389 2.43411 1.88639 1.25938 4.3748 1.25938 6.85823 1.25938 8.8769 2.43411 8.8769 3.86395L8.8769 2.47899" fill="#E7E8E8" fill-rule="evenodd" transform="matrix(1 0 0 -1 2271 1185)"/><path d="M9.04189 2.64247C9.04189 1.20764 7.0233 0.0271689 4.53961 0.0271689 2.05131 0.0271689 0.0419577 1.20764 0.0419577 2.64247L0.0419577 4.02769C0.0419577 2.59758 2.05131 1.42263 4.53961 1.42263 7.0233 1.42263 9.04189 2.59758 9.04189 4.02769Z" stroke="#000000" stroke-width="1.43924" stroke-linecap="round" stroke-linejoin="round" stroke-miterlimit="10" fill="none" fill-rule="evenodd" transform="matrix(1 0 0 -1 2271.5 1185.5)"/><path d="M3.54737 0.021222C5.47558 0.021222 7.045 0.695019 7.045 1.52736 7.045 2.34784 5.47558 3.02163 3.54737 3.02163 1.60882 3.02163 0.0447533 2.34784 0.0447533 1.52736 0.0447533 0.695019 1.60882 0.021222 3.54737 0.021222Z" stroke="#000000" stroke-width="1.43924" stroke-linecap="round" stroke-linejoin="round" stroke-miterlimit="10" fill="#E6E6E6" fill-rule="evenodd" transform="matrix(1 0 0 -1 2272.5 1182.5)"/><path d="M1.53924 0.0248501C1.82851 0.317204 2.09961 0.396139 2.5977 0.317204 2.4806 0.651584 2.60491 0.827727 3.03348 1.02726 2.60491 1.22716 2.4806 1.39855 2.5977 1.71904 2.09961 1.65399 1.82851 1.73293 1.53924 2.02528 1.23871 1.73293 0.97136 1.65399 0.477028 1.71904 0.590372 1.39855 0.466068 1.22716 0.0337438 1.02726 0.466068 0.827727 0.590372 0.651584 0.477028 0.317204 0.97136 0.396139 1.23871 0.317204 1.53924 0.0248501Z" stroke="#000000" stroke-width="1.43924" stroke-linecap="round" stroke-linejoin="round" stroke-miterlimit="10" fill="#231F20" fill-rule="evenodd" transform="matrix(1 0 0 -1 2274.5 1182.5)"/><path d="M0.0408469 6.02817 7.01205 1.54854C7.70358 1.0825 8.55026 0.727785 9.47397 0.459255 11.7765-0.169178 14.4885-0.12848 16.5545 0.702249 16.8956 0.844294 17.2005 1.01148 17.5007 1.18903 17.5101 1.18903 20.2174 2.93189 25.0409 6.02817Z" stroke="#231F20" stroke-width="1.43924" stroke-linecap="round" stroke-linejoin="round" stroke-miterlimit="10" fill="#D9D9D9" fill-rule="evenodd" transform="matrix(1 0 0 -1 2261.5 1190.5)"/><path d="M4.38559-0.171628C6.87144-0.171628 8.8788 0.94659 8.8788 2.34258 8.8788 3.70469 6.87144 4.82818 4.38559 4.82818 1.89973 4.82818-0.121131 3.70469-0.121131 2.34258-0.121131 0.94659 1.89973-0.171628 4.38559-0.171628" fill="#E7E8E8" fill-rule="evenodd" transform="matrix(1 0 0 -1 2347 966)"/><path d="M4.55609 0.00188202C7.04194 0.00188202 9.04967 1.12056 9.04967 2.51627 9.04967 3.87885 7.04194 5.00205 4.55609 5.00205 2.0706 5.00205 0.049376 3.87885 0.049376 2.51627 0.049376 1.12056 2.0706 0.00188202 4.55609 0.00188202Z" stroke="#000000" stroke-width="1.43924" stroke-linecap="round" stroke-linejoin="round" stroke-miterlimit="10" fill="none" fill-rule="evenodd" transform="matrix(1 0 0 -1 2347.5 966.5)"/><path d="M8.8788 1.81711C8.8788 0.738522 6.87144-0.134491 4.38559-0.134491 1.89973-0.134491-0.121131 0.738522-0.121131 1.81711L-0.121131 2.8659C-0.121131 1.77228 1.89973 0.895723 4.38559 0.895723 6.87144 0.895723 8.8788 1.77228 8.8788 2.8659L8.8788 1.81711" fill="#E7E8E8" fill-rule="evenodd" transform="matrix(1 0 0 -1 2347 967)"/><path d="M9.05002 1.95337C9.05002 0.874488 7.0423 0.00176962 4.55645 0.00176962 2.07095 0.00176962 0.0497312 0.874488 0.0497312 1.95337L0.0497312 3.00216C0.0497312 1.90824 2.07095 1.03198 4.55645 1.03198 7.0423 1.03198 9.05002 1.90824 9.05002 3.00216Z" stroke="#000000" stroke-width="1.43924" stroke-linecap="round" stroke-linejoin="round" stroke-miterlimit="10" fill="none" fill-rule="evenodd" transform="matrix(1 0 0 -1 2347.5 967.5)"/><path d="M3.04988 0.00208601C4.70571 0.00208601 6.0457 0.886971 6.0457 1.99965 6.0457 3.10148 4.70571 4.00222 3.04988 4.00222 1.38947 4.00222 0.0455402 3.10148 0.0455402 1.99965 0.0455402 0.886971 1.38947 0.00208601 3.04988 0.00208601Z" stroke="#000000" stroke-width="1.43924" stroke-linecap="round" stroke-linejoin="round" stroke-miterlimit="10" fill="#E6E6E6" fill-rule="evenodd" transform="matrix(1 0 0 -1 2349.5 965.5)"/><path d="M2.05341 0.00183156C2.4446 0.290119 2.7869 0.369243 3.46187 0.290119 3.30555 0.625295 3.46187 0.815778 4.05368 1.00186 3.46187 1.19748 3.30555 1.36964 3.46187 1.70921 2.7869 1.63009 2.4446 1.70921 2.05341 2.00226 1.65759 1.70921 1.30066 1.63009 0.630692 1.70921 0.792022 1.36964 0.630692 1.19748 0.0535202 1.00186 0.630692 0.815778 0.792022 0.625295 0.630692 0.290119 1.30066 0.369243 1.65759 0.290119 2.05341 0.00183156Z" stroke="#000000" stroke-width="1.43924" stroke-linecap="round" stroke-linejoin="round" stroke-miterlimit="10" fill="#231F20" fill-rule="evenodd" transform="matrix(1 0 0 -1 2350.5 964.5)"/><path d="M4.37996-0.15748C6.86002-0.15748 8.87567 0.966732 8.87567 2.34487 8.87567 3.72753 6.86002 4.84232 4.37996 4.84232 1.8999 4.84232-0.124624 3.72753-0.124624 2.34487-0.124624 0.966732 1.8999-0.15748 4.37996-0.15748" fill="#E7E8E8" fill-rule="evenodd" transform="matrix(1 0 0 -1 2209 1041)"/><path d="M4.53955 0.0101729C7.01952 0.0101729 9.03508 1.13447 9.03508 2.5127 9.03508 3.89546 7.01952 5.01034 4.53955 5.01034 2.05959 5.01034 0.0351491 3.89546 0.0351491 2.5127 0.0351491 1.13447 2.05959 0.0101729 4.53955 0.0101729Z" stroke="#000000" stroke-width="1.43924" stroke-linecap="round" stroke-linejoin="round" stroke-miterlimit="10" fill="none" fill-rule="evenodd" transform="matrix(1 0 0 -1 2209.5 1041.5)"/><path d="M8.87567 1.8396C8.87567 0.753473 6.86002-0.122974 4.37996-0.122974 1.8999-0.122974-0.124624 0.753473-0.124624 1.8396L-0.124624 2.87676C-0.124624 1.79831 1.8999 0.918028 4.37996 0.918028 6.86002 0.918028 8.87567 1.79831 8.87567 2.87676L8.87567 1.8396" fill="#E7E8E8" fill-rule="evenodd" transform="matrix(1 0 0 -1 2209 1042)"/><path d="M9.03544 1.97106C9.03544 0.884811 7.01987 0.00825823 4.53991 0.00825823 2.05995 0.00825823 0.0355041 0.884811 0.0355041 1.97106L0.0355041 3.00865C0.0355041 1.92977 2.05995 1.04939 4.53991 1.04939 7.01987 1.04939 9.03544 1.92977 9.03544 3.00865Z" stroke="#000000" stroke-width="1.43924" stroke-linecap="round" stroke-linejoin="round" stroke-miterlimit="10" fill="none" fill-rule="evenodd" transform="matrix(1 0 0 -1 2209.5 1042.5)"/><path d="M3.54034 0.0112352C5.47158 0.0112352 7.03779 0.909631 7.03779 2.0036 7.03779 3.12379 5.47158 4.01178 3.54034 4.01178 1.60413 4.01178 0.0379199 3.12379 0.0379199 2.0036 0.0379199 0.909631 1.60413 0.0112352 3.54034 0.0112352Z" stroke="#000000" stroke-width="1.43924" stroke-linecap="round" stroke-linejoin="round" stroke-miterlimit="10" fill="#E6E6E6" fill-rule="evenodd" transform="matrix(1 0 0 -1 2210.5 1040.5)"/><path d="M2.04328 0.00989043C2.42359 0.307702 2.78469 0.377302 3.44811 0.307702 3.30674 0.633354 3.44811 0.814679 4.03855 0.996003 3.44811 1.20553 3.30674 1.3821 3.44811 1.71251 2.78469 1.63339 2.42359 1.71727 2.04328 2.01032 1.64799 1.71727 1.2869 1.63339 0.623472 1.71251 0.789424 1.3821 0.623472 1.20553 0.0380306 0.996003 0.623472 0.814679 0.789424 0.633354 0.623472 0.307702 1.2869 0.377302 1.64799 0.307702 2.04328 0.00989043Z" stroke="#000000" stroke-width="1.43924" stroke-linecap="round" stroke-linejoin="round" stroke-miterlimit="10" fill="#231F20" fill-rule="evenodd" transform="matrix(1 0 0 -1 2212.5 1039.5)"/><path d="M4.37753-0.146787C6.86892-0.146787 8.87305 0.971808 8.87305 2.35311 8.87305 3.74421 6.86892 4.85302 4.37753 4.85302 1.89502 4.85302-0.127235 3.74421-0.127235 2.35311-0.127235 0.971808 1.89502-0.146787 4.37753-0.146787" fill="#E7E8E8" fill-rule="evenodd" transform="matrix(1 0 0 -1 2121 1097)"/><path d="M4.53071 0.0161854C7.0221 0.0161854 9.02623 1.13486 9.02623 2.51627 9.02623 3.90746 7.0221 5.01635 4.53071 5.01635 2.0482 5.01635 0.0259446 3.90746 0.0259446 2.51627 0.0259446 1.13486 2.0482 0.0161854 4.53071 0.0161854Z" stroke="#000000" stroke-width="1.43924" stroke-linecap="round" stroke-linejoin="round" stroke-miterlimit="10" fill="none" fill-rule="evenodd" transform="matrix(1 0 0 -1 2121.5 1097.5)"/><path d="M8.87305 2.45679C8.87305 1.01697 6.86892-0.153156 4.37753-0.153156 1.89502-0.153156-0.127235 1.01697-0.127235 2.45679L-0.127235 3.84701C-0.127235 2.40207 1.89502 1.23194 4.37753 1.23194 6.86892 1.23194 8.87305 2.40207 8.87305 3.84701L8.87305 2.45679" fill="#E7E8E8" fill-rule="evenodd" transform="matrix(1 0 0 -1 2121 1098)"/><path d="M9.02659 2.62751C9.02659 1.18756 7.02246 0.0173251 4.53107 0.0173251 2.04856 0.0173251 0.0263 1.18756 0.0263 2.62751L0.0263 4.01785C0.0263 2.57278 2.04856 1.40255 4.53107 1.40255 7.02246 1.40255 9.02659 2.57278 9.02659 4.01785Z" stroke="#000000" stroke-width="1.43924" stroke-linecap="round" stroke-linejoin="round" stroke-miterlimit="10" fill="none" fill-rule="evenodd" transform="matrix(1 0 0 -1 2121.5 1098.5)"/><path d="M3.52579 0.0134198C5.4666 0.0134198 7.02821 0.690962 7.02821 1.51144 7.02821 2.34378 5.4666 3.01383 3.52579 3.01383 1.58459 3.01383 0.0279612 2.34378 0.0279612 1.51144 0.0279612 0.690962 1.58459 0.0134198 3.52579 0.0134198Z" stroke="#000000" stroke-width="1.43924" stroke-linecap="round" stroke-linejoin="round" stroke-miterlimit="10" fill="#E6E6E6" fill-rule="evenodd" transform="matrix(1 0 0 -1 2122.5 1095.5)"/><path d="M2.02856 0.015714C2.41979 0.312819 2.77175 0.387003 3.43677 0.312819 3.30007 0.656334 3.4514 0.823341 4.02863 1.01337 3.4514 1.21327 3.30007 1.38941 3.43677 1.72818 2.77175 1.64486 2.41979 1.72818 2.02856 2.01614 1.63733 1.72818 1.27998 1.64486 0.605334 1.72818 0.766679 1.38941 0.605334 1.21327 0.0281103 1.01337 0.605334 0.823341 0.766679 0.656334 0.605334 0.312819 1.27998 0.387003 1.63733 0.312819 2.02856 0.015714Z" stroke="#000000" stroke-width="1.43924" stroke-linecap="round" stroke-linejoin="round" stroke-miterlimit="10" fill="#231F20" fill-rule="evenodd" transform="matrix(1 0 0 -1 2123.5 1095.5)"/><path d="M4.37078-0.11312C6.86252-0.11312 8.88016 0.781012 8.88016 1.87762 8.88016 2.98566 6.86252 3.88731 4.37078 3.88731 1.89289 3.88731-0.120127 2.98566-0.120127 1.87762-0.120127 0.781012 1.89289-0.11312 4.37078-0.11312" fill="#E7E8E8" fill-rule="evenodd" transform="matrix(1 0 0 -1 2385 1124)"/><path d="M4.54457 0.0153421C7.03596 0.0153421 9.0536 0.909394 9.0536 2.0059 9.0536 3.11384 7.03596 4.01541 4.54457 4.01541 2.06633 4.01541 0.0533108 3.11384 0.0533108 2.0059 0.0533108 0.909394 2.06633 0.0153421 4.54457 0.0153421Z" stroke="#000000" stroke-width="1.43924" stroke-linecap="round" stroke-linejoin="round" stroke-miterlimit="10" fill="none" fill-rule="evenodd" transform="matrix(1 0 0 -1 2385.5 1124.5)"/><path d="M8.88016 2.47057C8.88016 1.03876 6.86252-0.147832 4.37078-0.147832 1.89289-0.147832-0.120127 1.03876-0.120127 2.47057L-0.120127 3.8523C-0.120127 2.41577 1.89289 1.24415 4.37078 1.24415 6.86252 1.24415 8.88016 2.41577 8.88016 3.8523L8.88016 2.47057" fill="#E7E8E8" fill-rule="evenodd" transform="matrix(1 0 0 -1 2385 1126)"/><path d="M9.05396 2.6389C9.05396 1.2071 7.03632 0.0204993 4.54493 0.0204993 2.06668 0.0204993 0.0536662 1.2071 0.0536662 2.6389L0.0536662 4.02063C0.0536662 2.58371 2.06668 1.41248 4.54493 1.41248 7.03632 1.41248 9.05396 2.58371 9.05396 4.02063Z" stroke="#000000" stroke-width="1.43924" stroke-linecap="round" stroke-linejoin="round" stroke-miterlimit="10" fill="none" fill-rule="evenodd" transform="matrix(1 0 0 -1 2385.5 1126.5)"/><path d="M3.55249 0.0159146C5.48928 0.0159146 7.0572 0.685574 7.0572 1.51375 7.0572 2.33413 5.48928 3.01596 3.55249 3.01596 1.63023 3.01596 0.0573352 2.33413 0.0573352 1.51375 0.0573352 0.685574 1.63023 0.0159146 3.55249 0.0159146Z" stroke="#000000" stroke-width="1.43924" stroke-linecap="round" stroke-linejoin="round" stroke-miterlimit="10" fill="#E6E6E6" fill-rule="evenodd" transform="matrix(1 0 0 -1 2386.5 1123.5)"/><path d="M1.53807 0.01859C1.83563 0.314937 2.0927 0.393671 2.59931 0.314937 2.48191 0.643726 2.60683 0.83801 3.04376 1.01844 2.60683 1.21747 2.48191 1.38405 2.59931 1.72231 2.0927 1.64795 1.83563 1.72669 1.53807 2.01829 1.24804 1.72669 0.979984 1.64795 0.473076 1.72231 0.594236 1.38405 0.473076 1.21747 0.0433749 1.01844 0.473076 0.83801 0.594236 0.643726 0.473076 0.314937 0.979984 0.393671 1.24804 0.314937 1.53807 0.01859Z" stroke="#000000" stroke-width="1.43924" stroke-linecap="round" stroke-linejoin="round" stroke-miterlimit="10" fill="#231F20" fill-rule="evenodd" transform="matrix(1 0 0 -1 2388.5 1122.5)"/><path d="M4.38073-0.155372C6.85907-0.155372 8.88283 0.955612 8.88283 2.34 8.88283 3.71912 6.85907 4.84481 4.38073 4.84481 1.90204 4.84481-0.117103 3.71912-0.117103 2.34-0.117103 0.955612 1.90204-0.155372 4.38073-0.155372" fill="#E7E8E8" fill-rule="evenodd" transform="matrix(1 0 0 -1 2497 1053)"/><path d="M4.56279 0.0113143C7.04167 0.0113143 9.06559 1.12238 9.06559 2.50687 9.06559 3.88608 7.04167 5.01186 4.56279 5.01186 2.0839 5.01186 0.0649444 3.88608 0.0649444 2.50687 0.0649444 1.12238 2.0839 0.0113143 4.56279 0.0113143Z" stroke="#000000" stroke-width="1.43924" stroke-linecap="round" stroke-linejoin="round" stroke-miterlimit="10" fill="none" fill-rule="evenodd" transform="matrix(1 0 0 -1 2497.5 1053.5)"/><path d="M8.88283 1.83608C8.88283 0.756226 6.85907-0.121362 4.38073-0.121362 1.90204-0.121362-0.117103 0.756226-0.117103 1.83608L-0.117103 2.87874C-0.117103 1.79504 1.90204 0.924834 4.38073 0.924834 6.85907 0.924834 8.88283 1.79504 8.88283 2.87874L8.88283 1.83608" fill="#E7E8E8" fill-rule="evenodd" transform="matrix(1 0 0 -1 2497 1054)"/><path d="M9.06595 1.96709C9.06595 0.886829 7.04203 0.00915474 4.56314 0.00915474 2.08425 0.00915474 0.0652993 0.886829 0.0652993 1.96709L0.0652993 3.00955C0.0652993 1.92574 2.08425 1.05575 4.56314 1.05575 7.04203 1.05575 9.06595 1.92574 9.06595 3.00955Z" stroke="#000000" stroke-width="1.43924" stroke-linecap="round" stroke-linejoin="round" stroke-miterlimit="10" fill="none" fill-rule="evenodd" transform="matrix(1 0 0 -1 2497.5 1054.5)"/><path d="M3.57026 0.0124991C5.50297 0.0124991 7.07038 0.912018 7.07038 2.02319 7.07038 3.11853 5.50297 4.01263 3.57026 4.01263 1.64254 4.01263 0.070148 3.11853 0.070148 2.02319 0.070148 0.912018 1.64254 0.0124991 3.57026 0.0124991Z" stroke="#000000" stroke-width="1.43924" stroke-linecap="round" stroke-linejoin="round" stroke-miterlimit="10" fill="#E6E6E6" fill-rule="evenodd" transform="matrix(1 0 0 -1 2498.5 1052.5)"/><path d="M1.55098 0.0109633C1.8396 0.308068 2.12102 0.373117 2.60703 0.308068 2.50114 0.632946 2.60703 0.81384 3.05276 1.02287 2.60703 1.2129 2.50114 1.38941 2.60703 1.71904 2.12102 1.64924 1.8396 1.71904 1.55098 2.01139 1.2733 1.71904 0.99188 1.64924 0.491192 1.71904 0.604278 1.38941 0.491192 1.2129 0.0526585 1.02287 0.491192 0.81384 0.604278 0.632946 0.491192 0.308068 0.99188 0.373117 1.2733 0.308068 1.55098 0.0109633Z" stroke="#000000" stroke-width="1.43924" stroke-linecap="round" stroke-linejoin="round" stroke-miterlimit="10" fill="#231F20" fill-rule="evenodd" transform="matrix(1 0 0 -1 2500.5 1051.5)"/><path d="M16.0215 19.0255 16.0304 9.3857 0.0345222 0.024869 0.0298955 9.67403Z" stroke="#231F20" stroke-width="1.43924" stroke-miterlimit="8" fill="#636466" fill-rule="evenodd" transform="matrix(1 0 0 -1 2149.5 1186.5)"/><path d="M0.0313655 17.0255 0.0313655 7.37164 13.0314 0.0249164 13.0266 9.69211Z" stroke="#231F20" stroke-width="1.43924" stroke-miterlimit="8" fill="#636466" fill-rule="evenodd" transform="matrix(1 0 0 -1 2165.5 1184.5)"/><path d="M0.0299115 17.0258 0.0343429 7.36505 13.03 0.0256446 13.03 9.68174Z" stroke="#231F20" stroke-width="1.43924" stroke-miterlimit="8" fill="#636466" fill-rule="evenodd" transform="matrix(1 0 0 -1 2149.5 1193.5)"/><path d="M0.0293078 7.05275 12.7673 0.0231646 29.0295 9.00238 16.2872 16.0233Z" stroke="#231F20" stroke-width="1.43924" stroke-miterlimit="8" fill="#636466" fill-rule="evenodd" transform="matrix(1 0 0 -1 2149.5 1183.5)"/><path d="M16.0268 19.0259 16.0315 9.37486 0.0313184 0.0255956 0.0313184 9.66326Z" stroke="#231F20" stroke-width="1.43924" stroke-miterlimit="8" fill="#636466" fill-rule="evenodd" transform="matrix(1 0 0 -1 2162.5 1193.5)"/><path d="M37.9032 40.9999 46.0001 36.2556C34.4208 29.1767 24.5062 22.1799 15.9808 15.24L0 0 0 13.1353 7.86259 20.3011C16.3959 27.0331 26.3228 33.9217 37.9032 40.9999Z" stroke="#231F20" stroke-width="1.43924" stroke-miterlimit="8" fill="#8A8C8E" fill-rule="evenodd" transform="matrix(1 0 0 -1 2113.5 1222.5)"/></g></svg>